<svg width="260" height="64" viewBox="0 0 260 64" fill="none" xmlns="http://www.w3.org/2000/svg">
  <defs>
    <linearGradient id="fade" x1="0" y1="0" x2="1" y2="0">
      <stop offset="0" stop-color="#E5E7EB"/>
      <stop offset="1" stop-color="#111827"/>
    </linearGradient>
  </defs>
  <text x="0" y="44" font-family="Segoe UI, Arial, sans-serif" font-size="40" font-weight="700" fill="url(#fade)">Alpha</text>
  <text x="118" y="44" font-family="Segoe UI, Arial, sans-serif" font-size="40" font-weight="700" fill="#111827">Ride</text>
  <g transform="translate(120 6)" fill="#111827">
    <circle cx="24" cy="12" r="6"/>
    <path d="M20 20c6 0 10 4 12 9l2 6c1 3-1 6-4 6h-9c-3 0-6-2-7-5l-2-7c-1-5 3-9 8-9Z"/>
    <rect x="36" y="20" width="12" height="5" rx="2.5"/>
    <rect x="8" y="28" width="16" height="4" rx="2"/>
  </g>
  <path d="M200 34h18" stroke="#111827" stroke-width="3" stroke-linecap="round"/>
  <path d="M206 40h12" stroke="#111827" stroke-width="3" stroke-linecap="round"/>
</svg>
